
<svg width="38px" height="40px" viewBox="0 0 38 40" version="1.1" xmlns="http://www.w3.org/2000/svg" xmlns:xlink="http://www.w3.org/1999/xlink">
    <g id="Page-1" stroke="none" stroke-width="1" fill="none" fill-rule="evenodd">
        <g id="Essential-icons" transform="translate(-865.000000, -401.000000)" fill="#000000" fill-rule="nonzero">
            <g id="Essentials" transform="translate(69.000000, 149.000000)">
                <path d="M831.9,269.4 L800.9,252.4 C800.5,252.2 800,252 799.5,252 C799,252 798.4,252.1 798,252.4 C797.1,252.9 796.5,253.9 796.5,255 L796.5,289 C796.5,290.1 797.1,291 798,291.6 C798.5,291.9 799,292 799.5,292 C800,292 800.5,291.9 800.9,291.6 L831.9,274.6 C832.9,274.1 833.5,273.1 833.5,272 C833.5,270.9 832.9,269.9 831.9,269.4 Z M799.5,289 L799.5,274 L812.5,274 C813.3,274 814,273.3 814,272.5 C814,271.7 813.3,271 812.5,271 L799.5,271 L799.5,255 L830.5,272 L799.5,289 Z" id="Shape"></path>
            </g>
        </g>
    </g>
</svg>